<?xml version="1.0" encoding="UTF-8" standalone="no"?>
<!-- Created with Inkscape (http://www.inkscape.org/) -->

<svg
   width="1080"
   height="1080"
   viewBox="0 0 285.74999 285.75"
   version="1.1"
   id="svg5"
   xml:space="preserve"
   xmlns="http://www.w3.org/2000/svg"
   xmlns:svg="http://www.w3.org/2000/svg"><defs
     id="defs2" /><g
     id="layer1"><g
       id="g461"
       transform="matrix(6.2962229,0,0,5.7489792,-663.25708,-390.58077)"
       style="stroke-width:0.166213"><path
         style="opacity:0.98;fill:#000000;fill-rule:evenodd;stroke:#ffffff;stroke-width:0"
         d="m 113.41766,85.330943 c -3.14881,-0.047 -5.73309,-0.09306 -5.74284,-0.102364 -0.01,-0.0093 0.0362,-3.245455 0.10211,-7.191444 0.0659,-3.945988 0.12056,-7.435171 0.12145,-7.753738 l 0.002,-0.579213 5.28951,0.05887 c 2.90923,0.03238 5.54665,0.08306 5.86094,0.112614 l 0.57143,0.05374 -0.0647,4.646659 c -0.14624,10.496794 -0.15497,10.822943 -0.28988,10.831981 -0.0684,0.0046 -2.70076,-0.03011 -5.84958,-0.07711 z"
         id="path592" /><path
         style="opacity:0.98;fill:#000000;fill-rule:evenodd;stroke:#ffffff;stroke-width:0"
         d="m 141.59863,115.33424 c -3.16518,-0.0389 -5.76326,-0.0833 -5.77351,-0.0987 -1.71526,-2.57655 -14.34476,-21.951833 -14.35056,-22.015605 -0.005,-0.0517 2.79118,-5.297497 6.21306,-11.657321 l 6.22161,-11.563317 5.18714,0.01156 c 2.85293,0.0064 5.5892,0.03703 6.08059,0.06815 l 0.89345,0.05659 -6.52943,11.449728 c -3.59118,6.29735 -6.53007,11.511066 -6.53086,11.586034 -8.3e-4,0.07497 3.6462,5.097905 8.10442,11.162081 4.45822,6.06417 8.10585,11.04276 8.10585,11.06353 0,0.0208 -0.42005,0.031 -0.93344,0.0228 -0.51339,-0.008 -3.52314,-0.0467 -6.68832,-0.0856 z"
         id="path594" /><path
         style="opacity:0.98;fill:#000000;fill-rule:evenodd;stroke:#ffffff;stroke-width:0"
         d="m 107.45535,113.47757 c -0.0312,-1.14047 -0.0279,-2.1 0.007,-2.13228 0.0352,-0.0323 0.3627,-0.13189 0.72778,-0.22136 1.79947,-0.44102 3.11599,-1.05972 3.83109,-1.8004 0.82496,-0.85449 1.12541,-1.87905 1.23841,-4.2231 l 0.0568,-1.17791 -0.44734,-0.0588 c -0.24603,-0.0323 -1.56945,-0.0592 -2.94094,-0.0596 l -2.49361,-8e-4 0.0258,-3.20319 c 0.0142,-1.761762 0.0486,-4.201382 0.0764,-5.421381 l 0.0506,-2.21818 5.80798,0.05538 c 3.19438,0.03046 5.81302,0.06768 5.81918,0.08271 0.006,0.01504 -0.0115,2.910215 -0.0393,6.433732 -0.0535,6.786229 -0.0715,7.114639 -0.48678,8.896009 -0.79061,3.39126 -2.81327,5.39944 -6.45731,6.41109 -1.07841,0.29938 -2.70587,0.57584 -3.84073,0.65242 l -0.87847,0.0593 z"
         id="path596" /></g></g></svg>
